<svg width="120" height="50" viewBox="0 0 120 50" fill="none" xmlns="http://www.w3.org/2000/svg">
<rect x="0.5" y="0.5" width="119" height="49" rx="9.5" fill="#012437" fill-opacity="0.95"/>
<rect x="0.5" y="0.5" width="119" height="49" rx="9.5" stroke="#00F0FF"/>
<path d="M44.5931 34.192C43.2971 34.192 42.2491 33.8 41.4491 33.016C40.6651 32.216 40.2731 31.16 40.2731 29.848V21.328C40.2731 20.016 40.6651 18.968 41.4491 18.184C42.2491 17.4 43.2971 17.008 44.5931 17.008C45.9051 17.008 46.9531 17.4 47.7371 18.184C48.5371 18.968 48.9371 20.016 48.9371 21.328V21.712C48.9371 21.872 48.8571 21.952 48.6971 21.952L46.8731 22.048C46.7131 22.048 46.6331 21.968 46.6331 21.808V21.184C46.6331 20.528 46.4411 20 46.0571 19.6C45.6891 19.2 45.2011 19 44.5931 19C43.9851 19 43.4971 19.2 43.1291 19.6C42.7611 20 42.5771 20.528 42.5771 21.184V30.016C42.5771 30.672 42.7611 31.2 43.1291 31.6C43.4971 32 43.9851 32.2 44.5931 32.2C45.2011 32.2 45.6891 32 46.0571 31.6C46.4411 31.2 46.6331 30.672 46.6331 30.016V29.392C46.6331 29.232 46.7131 29.152 46.8731 29.152L48.6971 29.248C48.8571 29.248 48.9371 29.328 48.9371 29.488V29.848C48.9371 31.16 48.5371 32.216 47.7371 33.016C46.9531 33.8 45.9051 34.192 44.5931 34.192ZM54.8497 34.192C53.6017 34.192 52.6097 33.848 51.8737 33.16C51.1537 32.456 50.7937 31.528 50.7937 30.376V25.408C50.7937 24.272 51.1617 23.352 51.8977 22.648C52.6337 21.944 53.6177 21.592 54.8497 21.592C56.0977 21.592 57.0897 21.944 57.8257 22.648C58.5617 23.352 58.9297 24.272 58.9297 25.408V30.376C58.9297 31.528 58.5617 32.456 57.8257 33.16C57.0897 33.848 56.0977 34.192 54.8497 34.192ZM54.8497 32.176C55.3617 32.176 55.7857 32 56.1217 31.648C56.4577 31.28 56.6257 30.8 56.6257 30.208V25.552C56.6257 24.976 56.4577 24.504 56.1217 24.136C55.7857 23.768 55.3617 23.584 54.8497 23.584C54.3377 23.584 53.9137 23.768 53.5777 24.136C53.2577 24.504 53.0977 24.976 53.0977 25.552V30.208C53.0977 30.8 53.2577 31.28 53.5777 31.648C53.9137 32 54.3377 32.176 54.8497 32.176ZM66.0536 21.616C67.0616 21.616 67.8296 21.96 68.3576 22.648C68.9016 23.32 69.1736 24.28 69.1736 25.528V33.76C69.1736 33.92 69.0936 34 68.9336 34H67.1096C66.9496 34 66.8696 33.92 66.8696 33.76V25.72C66.8696 25.048 66.7256 24.528 66.4376 24.16C66.1496 23.792 65.7496 23.608 65.2376 23.608C64.7096 23.608 64.2936 23.792 63.9896 24.16C63.7016 24.512 63.5416 25.016 63.5096 25.672C63.5096 25.768 63.5016 25.816 63.4856 25.816V33.76C63.4856 33.92 63.4056 34 63.2456 34H61.4216C61.2616 34 61.1816 33.92 61.1816 33.76V22.024C61.1816 21.864 61.2616 21.784 61.4216 21.784H63.2456C63.4056 21.784 63.4856 21.864 63.4856 22.024V22.672C63.4856 22.704 63.5016 22.728 63.5336 22.744C63.5656 22.744 63.5976 22.72 63.6296 22.672C64.2056 21.968 65.0136 21.616 66.0536 21.616ZM76.317 23.224C76.317 23.384 76.237 23.464 76.077 23.464H74.397C74.333 23.464 74.301 23.496 74.301 23.56V30.304C74.301 30.944 74.413 31.392 74.637 31.648C74.861 31.888 75.213 32 75.693 31.984H75.909C76.069 31.984 76.149 32.064 76.149 32.224V33.76C76.149 33.92 76.069 34 75.909 34H75.165C74.141 34 73.365 33.8 72.837 33.4C72.325 33 72.069 32.24 72.069 31.12V23.56C72.069 23.496 72.037 23.464 71.973 23.464H71.037C70.877 23.464 70.797 23.384 70.797 23.224V22.024C70.797 21.864 70.877 21.784 71.037 21.784H71.973C72.037 21.784 72.069 21.752 72.069 21.688V18.976C72.069 18.816 72.149 18.736 72.309 18.736H74.061C74.221 18.736 74.301 18.816 74.301 18.976V21.688C74.301 21.752 74.333 21.784 74.397 21.784H76.077C76.237 21.784 76.317 21.864 76.317 22.024V23.224ZM82.0863 21.592C83.2543 21.592 84.2063 21.96 84.9423 22.696C85.6943 23.432 86.0703 24.4 86.0703 25.6V33.76C86.0703 33.92 85.9903 34 85.8303 34H84.0063C83.8463 34 83.7663 33.92 83.7663 33.76V33.232C83.7663 33.2 83.7503 33.176 83.7183 33.16C83.7023 33.144 83.6783 33.152 83.6463 33.184C83.0863 33.856 82.2623 34.192 81.1743 34.192C80.2623 34.192 79.4543 33.936 78.7503 33.424C78.0623 32.896 77.7183 31.968 77.7183 30.64C77.7183 29.248 78.1343 28.232 78.9663 27.592C79.8143 26.936 80.9183 26.608 82.2783 26.608H83.6703C83.7343 26.608 83.7663 26.576 83.7663 26.512V25.816C83.7663 25.144 83.6063 24.608 83.2863 24.208C82.9663 23.792 82.5503 23.584 82.0383 23.584C81.6383 23.584 81.3023 23.72 81.0303 23.992C80.7583 24.264 80.5983 24.616 80.5503 25.048C80.5503 25.208 80.4703 25.288 80.3103 25.288H78.3663C78.2063 25.288 78.1263 25.208 78.1263 25.048C78.2063 24.024 78.6143 23.192 79.3503 22.552C80.0863 21.912 80.9983 21.592 82.0863 21.592ZM81.6783 32.176C82.2383 32.176 82.7263 32 83.1423 31.648C83.5583 31.296 83.7663 30.8 83.7663 30.16V28.528C83.7663 28.464 83.7343 28.432 83.6703 28.432H82.2063C81.5663 28.432 81.0543 28.608 80.6703 28.96C80.2863 29.296 80.0943 29.792 80.0943 30.448C80.0943 31.024 80.2383 31.456 80.5263 31.744C80.8143 32.032 81.1983 32.176 81.6783 32.176ZM93.1217 23.224C93.1217 23.384 93.0417 23.464 92.8817 23.464H91.2017C91.1377 23.464 91.1057 23.496 91.1057 23.56V30.304C91.1057 30.944 91.2177 31.392 91.4417 31.648C91.6657 31.888 92.0177 32 92.4977 31.984H92.7137C92.8737 31.984 92.9537 32.064 92.9537 32.224V33.76C92.9537 33.92 92.8737 34 92.7137 34H91.9697C90.9457 34 90.1697 33.8 89.6417 33.4C89.1297 33 88.8737 32.24 88.8737 31.12V23.56C88.8737 23.496 88.8417 23.464 88.7777 23.464H87.8417C87.6817 23.464 87.6017 23.384 87.6017 23.224V22.024C87.6017 21.864 87.6817 21.784 87.8417 21.784H88.7777C88.8417 21.784 88.8737 21.752 88.8737 21.688V18.976C88.8737 18.816 88.9537 18.736 89.1137 18.736H90.8657C91.0257 18.736 91.1057 18.816 91.1057 18.976V21.688C91.1057 21.752 91.1377 21.784 91.2017 21.784H92.8817C93.0417 21.784 93.1217 21.864 93.1217 22.024V23.224ZM98.795 34.192C97.547 34.192 96.555 33.848 95.819 33.16C95.099 32.456 94.739 31.528 94.739 30.376V25.408C94.739 24.272 95.107 23.352 95.843 22.648C96.579 21.944 97.563 21.592 98.795 21.592C100.043 21.592 101.035 21.944 101.771 22.648C102.507 23.352 102.875 24.272 102.875 25.408V30.376C102.875 31.528 102.507 32.456 101.771 33.16C101.035 33.848 100.043 34.192 98.795 34.192ZM98.795 32.176C99.307 32.176 99.731 32 100.067 31.648C100.403 31.28 100.571 30.8 100.571 30.208V25.552C100.571 24.976 100.403 24.504 100.067 24.136C99.731 23.768 99.307 23.584 98.795 23.584C98.283 23.584 97.859 23.768 97.523 24.136C97.203 24.504 97.043 24.976 97.043 25.552V30.208C97.043 30.8 97.203 31.28 97.523 31.648C97.859 32 98.283 32.176 98.795 32.176Z" fill="#00F0FF"/>
<path d="M20.9664 32.3165C22.5729 33.1406 24.421 33.3638 26.1776 32.9459C27.9342 32.528 29.4837 31.4965 30.547 30.0372C31.6103 28.5778 32.1175 26.7867 31.977 24.9866C31.8366 23.1865 31.0578 21.4957 29.7811 20.2189C28.5043 18.9422 26.8135 18.1634 25.0134 18.023C23.2133 17.8825 21.4222 18.3897 19.9628 19.453C18.5035 20.5163 17.472 22.0658 17.0541 23.8224C16.6362 25.579 16.8594 27.4271 17.6835 29.0336L16 34L20.9664 32.3165Z" stroke="#00F0FF" stroke-width="2" stroke-linecap="round" stroke-linejoin="round"/>
</svg>
