<svg width="124" height="148" viewBox="0 0 124 148" fill="none" xmlns="http://www.w3.org/2000/svg">
<path fill-rule="evenodd" clip-rule="evenodd" d="M54.2829 0.169205L14.7633 25.4985L14.7595 75.4394L50.1841 96.5752L61.8722 89.5022L81.5354 77.6029L81.4356 52.8105C79.9421 52.3977 78.8428 51.0321 78.8363 49.4066C78.8284 47.4482 80.4097 45.8543 82.3683 45.8464C84.327 45.8385 85.921 47.4196 85.9289 49.3781C85.9354 51.0039 84.8466 52.3786 83.3558 52.803L83.451 76.4438L94.9637 69.4767L94.8676 45.6228C93.374 45.21 92.2745 43.8445 92.268 42.219C92.2601 40.2605 93.8414 38.6667 95.8001 38.6588C97.7587 38.6508 99.3528 40.232 99.3607 42.1904C99.3672 43.8163 98.2785 45.1908 96.7878 45.6152L96.8881 70.5257L96.8878 70.5564L61.8719 91.718L52.0243 97.6694L61.7562 103.524H61.8496L108.845 75.3004V25.499L68.9938 0.138809L68.9736 53.3879L61.6995 53.3737L54.2782 53.373L54.2829 0.169205Z" fill="url(#paint0_linear_186_117)"/>
<path fill-rule="evenodd" clip-rule="evenodd" d="M123.449 87.973L123.483 107.448L61.8135 147.258L0.132568 107.506L0.138369 88.0448L61.8043 123.897L123.449 87.973Z" fill="url(#paint1_linear_186_117)"/>
<path fill-rule="evenodd" clip-rule="evenodd" d="M123.469 79.0275L123.473 87.973L108.845 96.4834V88.4036L123.469 79.0275Z" fill="white"/>
<path fill-rule="evenodd" clip-rule="evenodd" d="M0.133423 79.0266L0.138512 88.0448L14.7634 96.5476L14.7635 88.3944L0.133423 79.0266Z" fill="#FEFEFE"/>
<defs>
<linearGradient id="paint0_linear_186_117" x1="11.591" y1="5.79156" x2="110.484" y2="65.6178" gradientUnits="userSpaceOnUse">
<stop stop-color="#056687"/>
<stop offset="1" stop-color="#00AFEF"/>
</linearGradient>
<linearGradient id="paint1_linear_186_117" x1="144.04" y1="112.972" x2="-43.8715" y2="87.4722" gradientUnits="userSpaceOnUse">
<stop stop-color="#00AFEF"/>
<stop offset="0.568627" stop-color="#028BBB"/>
<stop offset="1" stop-color="#056687"/>
</linearGradient>
</defs>
</svg>
