<svg width="464" height="153" viewBox="0 0 464 153" fill="none" xmlns="http://www.w3.org/2000/svg">
<path fill-rule="evenodd" clip-rule="evenodd" d="M54.9038 0.0323332L14.9851 25.6028L14.9812 76.0194L50.7636 97.3565L62.5698 90.2161L82.4316 78.2035L82.3308 53.175C80.8222 52.7582 79.7118 51.3796 79.7052 49.7387C79.6972 47.7616 81.2945 46.1525 83.2729 46.1445C85.2513 46.1366 86.8615 47.7328 86.8695 49.7099C86.8761 51.3512 85.7762 52.739 84.2703 53.1674L84.3665 77.0333L95.9955 69.9999L95.8985 45.9188C94.3898 45.5021 93.2792 44.1236 93.2726 42.4826C93.2646 40.5055 94.8619 38.8964 96.8403 38.8884C98.8188 38.8805 100.429 40.4767 100.437 42.4537C100.443 44.0951 99.3438 45.4827 97.8381 45.9111L97.9393 71.0589L97.9391 71.0899L62.5695 92.4531L52.6223 98.4612L62.4526 104.371H62.5469L110.017 75.8791V25.6034L69.7633 0.00164795L69.7429 53.7578L62.3953 53.7436L54.8991 53.7429L54.9038 0.0323332Z" fill="url(#paint0_linear_202_678)"/>
<path fill-rule="evenodd" clip-rule="evenodd" d="M124.768 88.6723L124.803 108.333L62.5105 148.522L0.206543 108.391L0.212402 88.7449L62.5013 124.938L124.768 88.6723Z" fill="url(#paint1_linear_202_678)"/>
<path fill-rule="evenodd" clip-rule="evenodd" d="M124.789 79.6417L124.793 88.6723L110.017 97.2638V89.107L124.789 79.6417Z" fill="#244457"/>
<path fill-rule="evenodd" clip-rule="evenodd" d="M0.20752 79.6407L0.212664 88.7448L14.9852 97.3286L14.9854 89.0977L0.20752 79.6407Z" fill="#244457"/>
<path d="M141.594 118.513C141.174 118.513 140.817 118.366 140.523 118.072C140.229 117.778 140.083 117.422 140.083 117.002V31.8889C140.083 31.4691 140.229 31.1124 140.523 30.8186C140.817 30.5248 141.174 30.3779 141.594 30.3779H156.335C156.755 30.3779 157.112 30.5248 157.406 30.8186C157.7 31.1124 157.847 31.4691 157.847 31.8889V117.002C157.847 117.422 157.7 117.778 157.406 118.072C157.112 118.366 156.755 118.513 156.335 118.513H141.594Z" fill="#244457"/>
<path d="M209.378 31.3852C209.714 30.7137 210.344 30.3779 211.268 30.3779H225.883C226.303 30.3779 226.66 30.5248 226.954 30.8186C227.248 31.1124 227.395 31.4692 227.395 31.8889V117.002C227.395 117.422 227.248 117.778 226.954 118.072C226.66 118.366 226.303 118.513 225.883 118.513H211.142C210.722 118.513 210.365 118.366 210.071 118.072C209.777 117.778 209.63 117.422 209.63 117.002V60.4698C209.63 60.134 209.546 59.9661 209.378 59.9661C209.21 59.9661 209.042 60.092 208.874 60.3438L199.047 77.719C198.627 78.3905 198.291 78.7263 198.039 78.7263C197.787 78.7263 197.451 78.3905 197.031 77.719L187.203 60.3438C187.035 60.092 186.867 59.9661 186.699 59.9661C186.531 59.9661 186.447 60.134 186.447 60.4698V117.002C186.447 117.422 186.3 117.778 186.006 118.072C185.712 118.366 185.355 118.513 184.935 118.513H170.194C169.774 118.513 169.417 118.366 169.124 118.072C168.83 117.778 168.683 117.422 168.683 117.002V31.8889C168.683 31.4692 168.83 31.1124 169.124 30.8186C169.417 30.5248 169.774 30.3779 170.194 30.3779H184.684C185.523 30.3779 186.153 30.7137 186.573 31.3852L197.787 51.4044C198.039 51.7402 198.291 51.7402 198.543 51.4044L209.378 31.3852ZM264.94 30.252C269.56 30.252 273.676 31.3852 277.288 33.6515C280.899 35.9179 283.692 39.0865 285.666 43.1576C287.64 47.2285 288.627 51.8661 288.627 57.0702C288.627 64.8765 286.527 71.1299 282.327 75.8304C278.128 80.531 272.626 82.8812 265.822 82.8812H256.373C255.953 82.8812 255.743 83.0911 255.743 83.5108V117.002C255.743 117.422 255.596 117.778 255.302 118.072C255.008 118.366 254.651 118.513 254.231 118.513H239.49C239.07 118.513 238.713 118.366 238.419 118.072C238.125 117.778 237.978 117.422 237.978 117.002V31.763C237.978 31.3432 238.125 30.9865 238.419 30.6927C238.713 30.3989 239.07 30.252 239.49 30.252H264.94ZM261.917 69.0314C264.604 69.0314 266.767 68.0031 268.405 65.9466C270.043 63.8902 270.862 61.0574 270.862 57.4479C270.862 53.7547 270.043 50.8588 268.405 48.7604C266.767 46.6619 264.604 45.6126 261.917 45.6126H256.373C255.953 45.6126 255.743 45.8225 255.743 46.2422V68.4018C255.743 68.8216 255.953 69.0314 256.373 69.0314H261.917ZM345.575 30.3779C345.995 30.3779 346.352 30.5248 346.646 30.8186C346.94 31.1124 347.087 31.4692 347.087 31.8889V44.1018C347.087 44.5215 346.94 44.8783 346.646 45.1721C346.352 45.4657 345.995 45.6126 345.575 45.6126H329.826C329.406 45.6126 329.196 45.8225 329.196 46.2422V117.002C329.196 117.422 329.049 117.778 328.755 118.072C328.461 118.366 328.104 118.513 327.684 118.513H312.943C312.523 118.513 312.166 118.366 311.872 118.072C311.578 117.778 311.431 117.422 311.431 117.002V46.2422C311.431 45.8225 311.221 45.6126 310.801 45.6126H295.682C295.262 45.6126 294.905 45.4657 294.611 45.1721C294.318 44.8783 294.171 44.5215 294.171 44.1018V31.8889C294.171 31.4692 294.318 31.1124 294.611 30.8186C294.905 30.5248 295.262 30.3779 295.682 30.3779H345.575ZM380.349 119.52C372.79 119.52 366.721 117.149 362.143 112.406C357.566 107.664 355.277 101.348 355.277 93.4574V31.8889C355.277 31.4692 355.424 31.1124 355.718 30.8186C356.012 30.5248 356.369 30.3779 356.789 30.3779H371.53C371.95 30.3779 372.307 30.5248 372.601 30.8186C372.895 31.1124 373.042 31.4692 373.042 31.8889V95.22C373.042 97.9061 373.714 100.088 375.057 101.767C376.401 103.446 378.165 104.285 380.349 104.285C382.533 104.285 384.276 103.446 385.578 101.767C386.88 100.088 387.531 97.9061 387.531 95.22V31.8889C387.531 31.4692 387.678 31.1124 387.972 30.8186C388.266 30.5248 388.623 30.3779 389.043 30.3779H403.784C404.204 30.3779 404.561 30.5248 404.855 30.8186C405.149 31.1124 405.295 31.4692 405.295 31.8889V93.4574C405.295 101.348 403.007 107.664 398.429 112.406C393.851 117.149 387.825 119.52 380.349 119.52ZM438.683 119.52C433.812 119.52 429.528 118.555 425.832 116.624C422.136 114.694 419.281 111.987 417.265 108.503C415.249 105.02 414.241 101.012 414.241 96.4792V92.8278C414.241 92.4082 414.388 92.0515 414.682 91.7577C414.976 91.4639 415.333 91.317 415.753 91.317H430.242C430.662 91.317 431.019 91.4639 431.313 91.7577C431.607 92.0515 431.754 92.4082 431.754 92.8278V95.5978C431.754 98.1999 432.426 100.298 433.77 101.893C435.114 103.488 436.793 104.285 438.809 104.285C440.825 104.285 442.505 103.53 443.849 102.019C445.193 100.508 445.865 98.5357 445.865 96.1015C445.865 93.5833 445.025 91.4219 443.345 89.6173C441.665 87.8126 438.389 85.1476 433.518 81.6221C429.318 78.6004 425.916 75.9144 423.312 73.5641C420.708 71.2138 418.483 68.3179 416.635 64.8765C414.787 61.435 413.863 57.4479 413.863 52.9153C413.863 45.7805 416.089 40.0728 420.541 35.792C424.992 31.5111 430.872 29.3707 438.179 29.3707C445.571 29.3707 451.514 31.5951 456.007 36.0438C460.501 40.4925 462.748 46.3261 462.748 53.5449V56.5667C462.748 56.9862 462.601 57.343 462.307 57.6368C462.013 57.9306 461.656 58.0775 461.236 58.0775H446.747C446.327 58.0775 445.97 57.9306 445.676 57.6368C445.382 57.343 445.235 56.9862 445.235 56.5667V53.1671C445.235 50.565 444.584 48.4875 443.282 46.9347C441.98 45.3819 440.279 44.6055 438.179 44.6055C436.164 44.6055 434.526 45.34 433.266 46.8088C432.006 48.2777 431.376 50.3132 431.376 52.9153C431.376 55.4334 432.174 57.6578 433.77 59.5884C435.366 61.5189 438.515 64.205 443.219 67.6465C448.427 71.5076 452.353 74.6344 454.999 77.0265C457.645 79.4187 459.703 82.0628 461.173 84.9587C462.643 87.8546 463.378 91.317 463.378 95.346C463.378 102.733 461.11 108.608 456.574 112.973C452.039 117.338 446.075 119.52 438.683 119.52Z" fill="black"/>
<path d="M143.121 147.646C142.207 147.646 141.476 147.341 140.93 146.731C140.383 146.121 140.109 145.306 140.109 144.287C140.109 144.133 140.124 143.901 140.154 143.592L140.199 143.106C140.229 142.951 140.312 142.874 140.446 142.874H141.143C141.218 142.874 141.274 142.897 141.312 142.943C141.349 142.99 141.36 143.044 141.345 143.106L141.278 143.546C141.263 143.669 141.255 143.847 141.255 144.079C141.255 144.851 141.435 145.461 141.795 145.909C142.154 146.357 142.634 146.581 143.233 146.581C143.727 146.581 144.184 146.438 144.604 146.152C145.023 145.866 145.357 145.461 145.604 144.936C145.851 144.411 145.975 143.824 145.975 143.175C145.975 142.712 145.885 142.299 145.705 141.936C145.525 141.573 145.3 141.256 145.031 140.986C144.761 140.716 144.319 140.302 143.705 139.746C143.091 139.206 142.615 138.758 142.278 138.403C141.941 138.047 141.664 137.634 141.446 137.163C141.229 136.692 141.121 136.155 141.121 135.553C141.121 135.414 141.136 135.19 141.166 134.881C141.315 133.692 141.742 132.758 142.447 132.078C143.151 131.399 143.997 131.059 144.986 131.059C145.93 131.059 146.675 131.364 147.222 131.974C147.769 132.584 148.042 133.414 148.042 134.464C148.042 134.603 148.027 134.843 147.997 135.183L147.93 135.762C147.9 135.916 147.817 135.993 147.683 135.993H146.963C146.829 135.993 146.761 135.916 146.761 135.762L146.829 135.183C146.858 134.904 146.874 134.704 146.874 134.58C146.874 133.839 146.694 133.244 146.334 132.796C145.975 132.348 145.48 132.124 144.851 132.124C144.207 132.124 143.645 132.368 143.166 132.854C142.686 133.341 142.394 134.024 142.289 134.904C142.274 135.013 142.267 135.167 142.267 135.368C142.267 135.986 142.424 136.515 142.739 136.955C143.053 137.395 143.63 137.978 144.469 138.704C145.173 139.322 145.701 139.82 146.053 140.198C146.405 140.576 146.679 140.974 146.874 141.391C147.068 141.808 147.166 142.295 147.166 142.851C147.166 142.974 147.151 143.191 147.121 143.499C146.971 144.766 146.529 145.774 145.795 146.523C145.061 147.272 144.169 147.646 143.121 147.646ZM155.975 141.831C155.945 141.986 155.862 142.063 155.727 142.063H150.716C150.671 142.063 150.634 142.094 150.604 142.156L150.379 144.125C150.364 144.218 150.357 144.357 150.357 144.542C150.357 145.144 150.518 145.631 150.84 146.001C151.162 146.372 151.6 146.557 152.154 146.557C152.664 146.557 153.121 146.395 153.525 146.071C153.93 145.747 154.222 145.322 154.402 144.797C154.476 144.658 154.566 144.588 154.671 144.588L155.345 144.635C155.405 144.635 155.454 144.65 155.491 144.681C155.529 144.712 155.54 144.758 155.525 144.82C155.525 144.866 155.518 144.897 155.503 144.913C155.263 145.762 154.836 146.43 154.222 146.917C153.608 147.403 152.881 147.646 152.042 147.646C151.158 147.646 150.458 147.384 149.941 146.859C149.424 146.333 149.166 145.631 149.166 144.75C149.166 144.627 149.181 144.442 149.211 144.194L149.817 139.074C149.937 138.055 150.334 137.221 151.008 136.572C151.683 135.924 152.499 135.6 153.458 135.6C154.342 135.6 155.042 135.866 155.559 136.399C156.076 136.932 156.334 137.638 156.334 138.519C156.334 138.642 156.319 138.827 156.289 139.074L155.975 141.831ZM153.345 136.688C152.731 136.688 152.203 136.916 151.761 137.372C151.319 137.827 151.053 138.418 150.963 139.144L150.761 140.905C150.761 140.936 150.769 140.959 150.784 140.974C150.799 140.99 150.814 140.997 150.829 140.997H154.829C154.888 140.997 154.918 140.967 154.918 140.905L155.143 139.144C155.158 139.051 155.166 138.92 155.166 138.75C155.166 138.117 155.001 137.615 154.671 137.244C154.342 136.874 153.9 136.688 153.345 136.688ZM164.199 136.017C164.229 135.862 164.312 135.785 164.447 135.785H165.166C165.3 135.785 165.368 135.862 165.368 136.017L164.02 147.229C164.02 147.291 163.997 147.345 163.952 147.391C163.907 147.438 163.847 147.461 163.772 147.461H163.053C162.993 147.461 162.945 147.438 162.907 147.391C162.87 147.345 162.859 147.291 162.874 147.229L162.963 146.395C162.978 146.349 162.975 146.322 162.952 146.314C162.93 146.306 162.904 146.318 162.874 146.349C162.304 147.198 161.51 147.623 160.492 147.623C159.712 147.623 159.106 147.399 158.671 146.951C158.237 146.503 158.02 145.839 158.02 144.959C158.02 144.82 158.035 144.581 158.065 144.241L159.031 136.017C159.046 135.955 159.076 135.901 159.121 135.854C159.166 135.808 159.218 135.785 159.278 135.785H159.997C160.072 135.785 160.128 135.808 160.166 135.854C160.203 135.901 160.214 135.955 160.199 136.017L159.256 143.963C159.226 144.241 159.211 144.442 159.211 144.565C159.211 145.214 159.357 145.704 159.649 146.036C159.941 146.368 160.357 146.534 160.896 146.534C161.54 146.534 162.072 146.287 162.492 145.793C162.911 145.299 163.173 144.619 163.278 143.754L164.199 136.017ZM171.346 147.461C171.286 147.461 171.237 147.438 171.2 147.391C171.162 147.345 171.151 147.291 171.166 147.229L173.031 131.476C173.046 131.414 173.076 131.36 173.121 131.314C173.166 131.267 173.218 131.244 173.278 131.244H173.997C174.072 131.244 174.128 131.267 174.166 131.314C174.203 131.36 174.215 131.414 174.2 131.476L172.312 147.229C172.312 147.291 172.289 147.345 172.245 147.391C172.199 147.438 172.14 147.461 172.065 147.461H171.346ZM177.503 133.445C177.218 133.445 176.986 133.352 176.806 133.167C176.627 132.982 176.537 132.735 176.537 132.426C176.537 132.055 176.656 131.746 176.896 131.499C177.136 131.252 177.428 131.128 177.773 131.128C178.057 131.128 178.29 131.217 178.469 131.395C178.649 131.572 178.739 131.808 178.739 132.101C178.739 132.487 178.619 132.808 178.379 133.063C178.14 133.318 177.847 133.445 177.503 133.445ZM175.48 147.461C175.331 147.461 175.271 147.384 175.301 147.229L176.627 136.017C176.656 135.862 176.739 135.785 176.874 135.785H177.593C177.743 135.785 177.803 135.862 177.773 136.017L176.447 147.229C176.417 147.384 176.334 147.461 176.2 147.461H175.48ZM189.458 135.623C190.177 135.623 190.735 135.889 191.132 136.422C191.529 136.955 191.728 137.685 191.728 138.611C191.728 138.781 191.713 139.051 191.683 139.422L190.739 147.229C190.739 147.291 190.716 147.345 190.671 147.391C190.627 147.438 190.574 147.461 190.514 147.461H189.773C189.713 147.461 189.664 147.438 189.626 147.391C189.589 147.345 189.578 147.291 189.593 147.229L190.514 139.538C190.544 139.26 190.559 139.051 190.559 138.912C190.559 138.217 190.417 137.677 190.132 137.291C189.847 136.905 189.458 136.712 188.964 136.712C188.349 136.712 187.836 136.959 187.424 137.453C187.012 137.947 186.754 138.627 186.649 139.492L185.728 147.229C185.728 147.291 185.705 147.345 185.66 147.391C185.615 147.438 185.555 147.461 185.48 147.461H184.761C184.701 147.461 184.653 147.438 184.615 147.391C184.578 147.345 184.567 147.291 184.582 147.229L185.503 139.538C185.533 139.26 185.548 139.059 185.548 138.936C185.548 138.241 185.406 137.696 185.121 137.302C184.836 136.908 184.447 136.712 183.952 136.712C183.338 136.712 182.821 136.959 182.402 137.453C181.982 137.947 181.72 138.627 181.615 139.492L180.694 147.229C180.694 147.291 180.671 147.345 180.626 147.391C180.582 147.438 180.522 147.461 180.447 147.461H179.75C179.6 147.461 179.54 147.384 179.57 147.229L180.896 136.017C180.926 135.862 181.009 135.785 181.143 135.785H181.84C181.975 135.785 182.042 135.862 182.042 136.017L181.93 136.874C181.93 136.92 181.941 136.947 181.964 136.955C181.986 136.963 182.012 136.943 182.042 136.897C182.357 136.48 182.724 136.163 183.143 135.947C183.563 135.731 183.997 135.623 184.447 135.623C184.986 135.623 185.439 135.777 185.806 136.086C186.173 136.395 186.439 136.835 186.604 137.406C186.604 137.484 186.642 137.468 186.716 137.36C187.031 136.789 187.432 136.356 187.918 136.063C188.405 135.769 188.919 135.623 189.458 135.623ZM195.952 133.445C195.668 133.445 195.436 133.352 195.256 133.167C195.076 132.982 194.986 132.735 194.986 132.426C194.986 132.055 195.106 131.746 195.346 131.499C195.585 131.252 195.877 131.128 196.222 131.128C196.507 131.128 196.739 131.217 196.919 131.395C197.099 131.572 197.188 131.808 197.188 132.101C197.188 132.487 197.069 132.808 196.829 133.063C196.589 133.318 196.297 133.445 195.952 133.445ZM193.93 147.461C193.78 147.461 193.72 147.384 193.75 147.229L195.076 136.017C195.106 135.862 195.188 135.785 195.323 135.785H196.042C196.192 135.785 196.252 135.862 196.222 136.017L194.896 147.229C194.866 147.384 194.784 147.461 194.649 147.461H193.93ZM202.851 136.526C202.821 136.681 202.739 136.758 202.604 136.758H200.851C200.791 136.758 200.761 136.789 200.761 136.851L199.862 144.31C199.832 144.619 199.818 144.82 199.818 144.913C199.818 145.453 199.926 145.832 200.143 146.048C200.361 146.264 200.701 146.372 201.166 146.372H201.391C201.54 146.372 201.6 146.449 201.57 146.604L201.503 147.229C201.473 147.384 201.391 147.461 201.256 147.461H200.829C200.11 147.461 199.567 147.31 199.2 147.009C198.833 146.708 198.649 146.156 198.649 145.353C198.649 145.229 198.664 144.982 198.694 144.611L199.615 136.851C199.63 136.835 199.63 136.816 199.615 136.793C199.6 136.769 199.578 136.758 199.548 136.758H198.649C198.499 136.758 198.439 136.681 198.469 136.526L198.514 136.017C198.544 135.862 198.626 135.785 198.761 135.785H199.66C199.72 135.785 199.75 135.754 199.75 135.692L200.065 133.098C200.095 132.943 200.177 132.866 200.312 132.866H201.009C201.143 132.866 201.211 132.943 201.211 133.098L200.896 135.692C200.896 135.754 200.919 135.785 200.964 135.785H202.716C202.866 135.785 202.926 135.862 202.896 136.017L202.851 136.526ZM210.559 141.831C210.529 141.986 210.447 142.063 210.312 142.063H205.301C205.256 142.063 205.218 142.094 205.188 142.156L204.964 144.125C204.949 144.218 204.941 144.357 204.941 144.542C204.941 145.144 205.102 145.631 205.424 146.001C205.746 146.372 206.185 146.557 206.739 146.557C207.248 146.557 207.705 146.395 208.11 146.071C208.514 145.747 208.806 145.322 208.986 144.797C209.061 144.658 209.151 144.588 209.256 144.588L209.93 144.635C209.99 144.635 210.039 144.65 210.076 144.681C210.113 144.712 210.125 144.758 210.11 144.82C210.11 144.866 210.102 144.897 210.087 144.913C209.848 145.762 209.421 146.43 208.806 146.917C208.192 147.403 207.466 147.646 206.627 147.646C205.743 147.646 205.042 147.384 204.525 146.859C204.009 146.333 203.75 145.631 203.75 144.75C203.75 144.627 203.765 144.442 203.795 144.194L204.402 139.074C204.522 138.055 204.919 137.221 205.593 136.572C206.267 135.924 207.084 135.6 208.042 135.6C208.926 135.6 209.627 135.866 210.143 136.399C210.66 136.932 210.919 137.638 210.919 138.519C210.919 138.642 210.904 138.827 210.874 139.074L210.559 141.831ZM207.93 136.688C207.316 136.688 206.788 136.916 206.346 137.372C205.904 137.827 205.638 138.418 205.548 139.144L205.346 140.905C205.346 140.936 205.353 140.959 205.368 140.974C205.383 140.99 205.398 140.997 205.413 140.997H209.413C209.473 140.997 209.503 140.967 209.503 140.905L209.728 139.144C209.743 139.051 209.75 138.92 209.75 138.75C209.75 138.117 209.585 137.615 209.256 137.244C208.926 136.874 208.484 136.688 207.93 136.688ZM223.638 141.831C223.608 141.986 223.525 142.063 223.391 142.063H218.379C218.334 142.063 218.297 142.094 218.267 142.156L218.042 144.125C218.027 144.218 218.02 144.357 218.02 144.542C218.02 145.144 218.181 145.631 218.503 146.001C218.825 146.372 219.263 146.557 219.818 146.557C220.327 146.557 220.784 146.395 221.189 146.071C221.593 145.747 221.885 145.322 222.065 144.797C222.14 144.658 222.23 144.588 222.335 144.588L223.009 144.635C223.069 144.635 223.117 144.65 223.155 144.681C223.192 144.712 223.203 144.758 223.188 144.82C223.188 144.866 223.181 144.897 223.166 144.913C222.926 145.762 222.499 146.43 221.885 146.917C221.271 147.403 220.544 147.646 219.705 147.646C218.821 147.646 218.121 147.384 217.604 146.859C217.087 146.333 216.829 145.631 216.829 144.75C216.829 144.627 216.844 144.442 216.874 144.194L217.481 139.074C217.6 138.055 217.997 137.221 218.672 136.572C219.346 135.924 220.162 135.6 221.121 135.6C222.005 135.6 222.705 135.866 223.222 136.399C223.739 136.932 223.997 137.638 223.997 138.519C223.997 138.642 223.982 138.827 223.953 139.074L223.638 141.831ZM221.009 136.688C220.394 136.688 219.866 136.916 219.424 137.372C218.982 137.827 218.717 138.418 218.627 139.144L218.424 140.905C218.424 140.936 218.432 140.959 218.447 140.974C218.462 140.99 218.477 140.997 218.492 140.997H222.492C222.552 140.997 222.582 140.967 222.582 140.905L222.807 139.144C222.821 139.051 222.829 138.92 222.829 138.75C222.829 138.117 222.664 137.615 222.335 137.244C222.005 136.874 221.563 136.688 221.009 136.688ZM220.604 134.233C220.514 134.233 220.458 134.206 220.436 134.152C220.413 134.098 220.432 134.032 220.492 133.955L222.155 131.406C222.23 131.298 222.32 131.244 222.424 131.244H223.009C223.099 131.244 223.155 131.271 223.177 131.325C223.2 131.379 223.188 131.445 223.144 131.522L221.323 134.07C221.248 134.179 221.158 134.233 221.054 134.233H220.604ZM234.807 135.623C235.571 135.623 236.159 135.87 236.571 136.364C236.983 136.858 237.189 137.553 237.189 138.449C237.189 138.604 237.174 138.866 237.144 139.237L236.2 147.229C236.17 147.384 236.087 147.461 235.953 147.461H235.234C235.084 147.461 235.024 147.384 235.054 147.229L235.975 139.353C236.005 139.075 236.02 138.874 236.02 138.75C236.02 138.102 235.874 137.6 235.582 137.244C235.29 136.889 234.866 136.712 234.312 136.712C233.683 136.712 233.155 136.959 232.728 137.453C232.301 137.947 232.035 138.627 231.93 139.492L231.009 147.229C230.979 147.384 230.896 147.461 230.762 147.461H230.042C229.893 147.461 229.833 147.384 229.863 147.229L231.188 136.017C231.219 135.862 231.301 135.785 231.436 135.785H232.155C232.29 135.785 232.357 135.862 232.357 136.017L232.245 136.897C232.23 136.943 232.237 136.966 232.267 136.966C232.297 136.966 232.327 136.951 232.357 136.92C232.956 136.055 233.773 135.623 234.807 135.623ZM241.908 147.646C241.024 147.646 240.324 147.38 239.807 146.847C239.29 146.314 239.031 145.608 239.031 144.727C239.031 144.604 239.046 144.418 239.076 144.171L239.683 139.074C239.803 138.055 240.2 137.221 240.874 136.572C241.548 135.924 242.365 135.6 243.324 135.6C244.222 135.6 244.93 135.866 245.447 136.399C245.964 136.932 246.222 137.638 246.222 138.519C246.222 138.642 246.207 138.827 246.177 139.074L245.571 144.171C245.451 145.206 245.058 146.044 244.391 146.685C243.724 147.326 242.896 147.646 241.908 147.646ZM242.02 146.557C242.649 146.557 243.189 146.33 243.638 145.874C244.087 145.418 244.35 144.835 244.425 144.125L245.031 139.144C245.046 139.051 245.054 138.928 245.054 138.773C245.054 138.14 244.885 137.634 244.548 137.256C244.211 136.878 243.765 136.688 243.211 136.688C242.597 136.688 242.069 136.916 241.627 137.372C241.185 137.827 240.919 138.418 240.829 139.144L240.245 144.125C240.23 144.218 240.222 144.357 240.222 144.542C240.222 145.144 240.383 145.631 240.705 146.001C241.028 146.372 241.466 146.557 242.02 146.557ZM250.492 147.577C249.623 147.577 248.938 147.341 248.436 146.87C247.934 146.399 247.683 145.785 247.683 145.028C247.683 144.859 247.691 144.727 247.706 144.635L247.728 144.496C247.758 144.341 247.84 144.264 247.975 144.264H248.649C248.799 144.264 248.859 144.341 248.829 144.496V144.635L248.807 144.889C248.807 145.384 248.971 145.789 249.301 146.106C249.631 146.422 250.073 146.581 250.627 146.581C251.211 146.581 251.702 146.391 252.099 146.013C252.496 145.635 252.732 145.144 252.807 144.542L252.829 144.264C252.829 143.878 252.739 143.557 252.559 143.303C252.38 143.048 252.159 142.843 251.897 142.689C251.634 142.534 251.264 142.341 250.784 142.109C250.035 141.77 249.458 141.403 249.054 141.009C248.649 140.615 248.447 140.032 248.447 139.26C248.447 138.194 248.769 137.333 249.413 136.677C250.058 136.02 250.874 135.692 251.863 135.692C252.717 135.692 253.383 135.932 253.863 136.41C254.342 136.889 254.582 137.53 254.582 138.333C254.582 138.519 254.574 138.665 254.56 138.773L254.537 138.843C254.537 138.905 254.515 138.959 254.47 139.005C254.425 139.051 254.372 139.074 254.312 139.074H253.638C253.578 139.074 253.53 139.051 253.492 139.005C253.455 138.959 253.443 138.905 253.458 138.843L253.481 138.727C253.541 138.156 253.41 137.677 253.088 137.291C252.766 136.905 252.32 136.712 251.75 136.712C251.121 136.712 250.601 136.932 250.189 137.372C249.777 137.812 249.571 138.364 249.571 139.028C249.571 139.538 249.724 139.928 250.031 140.198C250.339 140.468 250.822 140.766 251.481 141.09C252.005 141.337 252.432 141.565 252.762 141.774C253.091 141.982 253.376 142.272 253.616 142.642C253.855 143.013 253.975 143.469 253.975 144.009C253.975 145.075 253.653 145.936 253.009 146.592C252.365 147.249 251.526 147.577 250.492 147.577ZM257.795 147.577C256.927 147.577 256.241 147.341 255.739 146.87C255.237 146.399 254.986 145.785 254.986 145.028C254.986 144.859 254.994 144.727 255.009 144.635L255.031 144.496C255.061 144.341 255.144 144.264 255.279 144.264H255.953C256.103 144.264 256.162 144.341 256.133 144.496V144.635L256.11 144.889C256.11 145.384 256.275 145.789 256.604 146.106C256.934 146.422 257.376 146.581 257.93 146.581C258.514 146.581 259.005 146.391 259.402 146.013C259.799 145.635 260.035 145.144 260.11 144.542L260.133 144.264C260.133 143.878 260.043 143.557 259.863 143.303C259.683 143.048 259.462 142.843 259.2 142.689C258.938 142.534 258.567 142.341 258.088 142.109C257.339 141.77 256.762 141.403 256.357 141.009C255.953 140.615 255.75 140.032 255.75 139.26C255.75 138.194 256.073 137.333 256.717 136.677C257.361 136.02 258.177 135.692 259.166 135.692C260.02 135.692 260.687 135.932 261.166 136.41C261.646 136.889 261.885 137.53 261.885 138.333C261.885 138.519 261.878 138.665 261.863 138.773L261.84 138.843C261.84 138.905 261.818 138.959 261.773 139.005C261.728 139.051 261.676 139.074 261.616 139.074H260.942C260.882 139.074 260.833 139.051 260.795 139.005C260.758 138.959 260.747 138.905 260.762 138.843L260.784 138.727C260.844 138.156 260.713 137.677 260.391 137.291C260.069 136.905 259.623 136.712 259.054 136.712C258.425 136.712 257.904 136.932 257.492 137.372C257.08 137.812 256.874 138.364 256.874 139.028C256.874 139.538 257.028 139.928 257.335 140.198C257.642 140.468 258.125 140.766 258.784 141.09C259.309 141.337 259.736 141.565 260.065 141.774C260.395 141.982 260.679 142.272 260.919 142.642C261.159 143.013 261.279 143.469 261.279 144.009C261.279 145.075 260.957 145.936 260.312 146.592C259.668 147.249 258.829 147.577 257.795 147.577ZM266.02 147.646C265.136 147.646 264.436 147.38 263.919 146.847C263.402 146.314 263.144 145.608 263.144 144.727C263.144 144.604 263.159 144.418 263.189 144.171L263.795 139.074C263.915 138.055 264.312 137.221 264.986 136.572C265.661 135.924 266.477 135.6 267.436 135.6C268.335 135.6 269.043 135.866 269.56 136.399C270.076 136.932 270.335 137.638 270.335 138.519C270.335 138.642 270.32 138.827 270.29 139.074L269.683 144.171C269.563 145.206 269.17 146.044 268.503 146.685C267.837 147.326 267.009 147.646 266.02 147.646ZM266.133 146.557C266.762 146.557 267.301 146.33 267.751 145.874C268.2 145.418 268.462 144.835 268.537 144.125L269.144 139.144C269.159 139.051 269.166 138.928 269.166 138.773C269.166 138.14 268.998 137.634 268.661 137.256C268.324 136.878 267.878 136.688 267.324 136.688C266.709 136.688 266.181 136.916 265.739 137.372C265.297 137.827 265.031 138.418 264.942 139.144L264.357 144.125C264.342 144.218 264.335 144.357 264.335 144.542C264.335 145.144 264.496 145.631 264.818 146.001C265.14 146.372 265.578 146.557 266.133 146.557ZM281.301 135.6C282.11 135.6 282.747 135.862 283.211 136.387C283.676 136.912 283.908 137.607 283.908 138.472C283.908 138.596 283.893 138.797 283.863 139.074L283.256 144.171C283.136 145.206 282.762 146.044 282.133 146.685C281.503 147.326 280.747 147.646 279.863 147.646C279.428 147.646 279.031 147.554 278.672 147.368C278.312 147.183 278.02 146.913 277.796 146.557C277.751 146.48 277.713 146.488 277.683 146.581L277.076 151.77C277.047 151.925 276.964 152.002 276.829 152.002H276.11C275.96 152.002 275.9 151.925 275.93 151.77L277.796 136.017C277.826 135.862 277.908 135.785 278.043 135.785H278.762C278.912 135.785 278.972 135.862 278.942 136.017L278.874 136.665C278.874 136.696 278.886 136.715 278.908 136.723C278.93 136.731 278.957 136.719 278.987 136.688C279.286 136.333 279.635 136.063 280.032 135.878C280.428 135.692 280.852 135.6 281.301 135.6ZM282.717 139.121C282.732 139.028 282.739 138.889 282.739 138.704C282.739 138.102 282.571 137.615 282.234 137.244C281.897 136.874 281.451 136.688 280.897 136.688C280.297 136.688 279.784 136.912 279.357 137.36C278.93 137.808 278.672 138.395 278.582 139.121L277.998 144.125C277.983 144.218 277.975 144.364 277.975 144.565C277.975 145.167 278.133 145.65 278.447 146.013C278.762 146.376 279.189 146.557 279.728 146.557C280.342 146.557 280.874 146.33 281.324 145.874C281.773 145.418 282.043 144.835 282.133 144.125L282.717 139.121ZM290.29 135.692C290.65 135.692 290.957 135.769 291.211 135.924C291.301 136.001 291.324 136.102 291.279 136.225L291.009 137.013C290.949 137.152 290.852 137.19 290.717 137.129C290.507 137.036 290.23 136.997 289.886 137.013C289.301 137.028 288.792 137.337 288.357 137.939C287.923 138.542 287.653 139.283 287.548 140.163L286.694 147.229C286.665 147.384 286.582 147.461 286.447 147.461H285.728C285.578 147.461 285.519 147.384 285.548 147.229L286.874 136.017C286.904 135.862 286.987 135.785 287.122 135.785H287.841C287.975 135.785 288.043 135.862 288.043 136.017L287.863 137.453C287.863 137.561 287.9 137.561 287.975 137.453C288.245 136.897 288.575 136.464 288.964 136.155C289.354 135.847 289.796 135.692 290.29 135.692ZM294.605 147.646C293.721 147.646 293.02 147.38 292.504 146.847C291.987 146.314 291.728 145.608 291.728 144.727C291.728 144.604 291.743 144.418 291.773 144.171L292.38 139.074C292.5 138.055 292.897 137.221 293.571 136.572C294.245 135.924 295.062 135.6 296.02 135.6C296.919 135.6 297.627 135.866 298.144 136.399C298.661 136.932 298.919 137.638 298.919 138.519C298.919 138.642 298.904 138.827 298.874 139.074L298.268 144.171C298.148 145.206 297.754 146.044 297.088 146.685C296.421 147.326 295.593 147.646 294.605 147.646ZM294.717 146.557C295.346 146.557 295.885 146.33 296.335 145.874C296.784 145.418 297.047 144.835 297.121 144.125L297.728 139.144C297.743 139.051 297.751 138.928 297.751 138.773C297.751 138.14 297.582 137.634 297.245 137.256C296.908 136.878 296.462 136.688 295.908 136.688C295.294 136.688 294.766 136.916 294.324 137.372C293.882 137.827 293.616 138.418 293.526 139.144L292.942 144.125C292.927 144.218 292.919 144.357 292.919 144.542C292.919 145.144 293.08 145.631 293.402 146.001C293.724 146.372 294.163 146.557 294.717 146.557ZM295.571 134.233C295.481 134.233 295.425 134.206 295.402 134.152C295.38 134.098 295.399 134.032 295.459 133.955L297.121 131.406C297.196 131.298 297.286 131.244 297.391 131.244H297.975C298.065 131.244 298.122 131.271 298.144 131.325C298.166 131.379 298.155 131.445 298.11 131.522L296.29 134.07C296.215 134.179 296.125 134.233 296.02 134.233H295.571ZM299.638 147.461C299.563 147.461 299.515 147.434 299.492 147.38C299.47 147.326 299.474 147.26 299.503 147.183L302.874 141.692C302.904 141.646 302.904 141.6 302.874 141.553L300.829 136.063L300.807 135.993C300.807 135.854 300.882 135.785 301.032 135.785H301.841C301.99 135.785 302.073 135.839 302.088 135.947L303.638 140.441C303.653 140.472 303.676 140.488 303.706 140.488C303.736 140.488 303.758 140.472 303.773 140.441L306.402 135.947C306.462 135.839 306.56 135.785 306.695 135.785H307.504C307.578 135.785 307.627 135.812 307.65 135.866C307.672 135.92 307.661 135.986 307.616 136.063L304.29 141.553C304.245 141.6 304.238 141.646 304.268 141.692L306.29 147.183L306.312 147.276C306.312 147.399 306.245 147.461 306.11 147.461H305.301C305.151 147.461 305.069 147.407 305.054 147.299L303.504 142.804C303.489 142.774 303.466 142.758 303.436 142.758C303.406 142.758 303.384 142.774 303.369 142.804L300.74 147.299C300.68 147.407 300.59 147.461 300.47 147.461H299.638ZM310.672 133.445C310.387 133.445 310.155 133.352 309.975 133.167C309.796 132.982 309.706 132.735 309.706 132.426C309.706 132.055 309.826 131.746 310.065 131.499C310.305 131.252 310.597 131.128 310.942 131.128C311.227 131.128 311.459 131.217 311.638 131.395C311.818 131.572 311.908 131.808 311.908 132.101C311.908 132.487 311.788 132.808 311.549 133.063C311.309 133.318 311.017 133.445 310.672 133.445ZM308.65 147.461C308.5 147.461 308.44 147.384 308.47 147.229L309.796 136.017C309.826 135.862 309.908 135.785 310.043 135.785H310.762C310.912 135.785 310.972 135.862 310.942 136.017L309.616 147.229C309.586 147.384 309.504 147.461 309.369 147.461H308.65ZM322.627 135.623C323.346 135.623 323.904 135.889 324.301 136.422C324.698 136.955 324.897 137.685 324.897 138.611C324.897 138.781 324.882 139.051 324.852 139.422L323.908 147.229C323.908 147.291 323.886 147.345 323.841 147.391C323.796 147.438 323.743 147.461 323.683 147.461H322.942C322.882 147.461 322.833 147.438 322.796 147.391C322.758 147.345 322.747 147.291 322.762 147.229L323.683 139.538C323.713 139.26 323.728 139.051 323.728 138.912C323.728 138.217 323.586 137.677 323.301 137.291C323.017 136.905 322.627 136.712 322.133 136.712C321.519 136.712 321.005 136.959 320.593 137.453C320.182 137.947 319.923 138.627 319.818 139.492L318.897 147.229C318.897 147.291 318.874 147.345 318.829 147.391C318.785 147.438 318.725 147.461 318.65 147.461H317.931C317.871 147.461 317.822 147.438 317.784 147.391C317.747 147.345 317.736 147.291 317.751 147.229L318.672 139.538C318.702 139.26 318.717 139.059 318.717 138.936C318.717 138.241 318.575 137.696 318.29 137.302C318.005 136.908 317.616 136.712 317.122 136.712C316.507 136.712 315.99 136.959 315.571 137.453C315.152 137.947 314.889 138.627 314.784 139.492L313.863 147.229C313.863 147.291 313.841 147.345 313.796 147.391C313.751 147.438 313.691 147.461 313.616 147.461H312.919C312.769 147.461 312.71 147.384 312.74 147.229L314.065 136.017C314.095 135.862 314.178 135.785 314.313 135.785H315.009C315.144 135.785 315.212 135.862 315.212 136.017L315.099 136.874C315.099 136.92 315.11 136.947 315.133 136.955C315.155 136.963 315.181 136.943 315.212 136.897C315.526 136.48 315.893 136.163 316.312 135.947C316.732 135.731 317.167 135.623 317.616 135.623C318.155 135.623 318.609 135.777 318.975 136.086C319.343 136.395 319.608 136.835 319.773 137.406C319.773 137.484 319.811 137.468 319.886 137.36C320.2 136.789 320.601 136.356 321.088 136.063C321.575 135.769 322.088 135.623 322.627 135.623Z" fill="#5D8A9F" stroke="#A9ABAE" stroke-width="0.288" stroke-miterlimit="22.9256"/>
<path d="M329.638 147.646C328.755 147.646 328.054 147.38 327.537 146.847C327.021 146.314 326.762 145.608 326.762 144.727C326.762 144.604 326.777 144.418 326.807 144.171L327.414 139.075C327.534 138.055 327.931 137.221 328.605 136.573C329.279 135.924 330.095 135.6 331.054 135.6C331.953 135.6 332.661 135.866 333.178 136.399C333.695 136.932 333.953 137.638 333.953 138.519C333.953 138.642 333.938 138.827 333.908 139.075L333.302 144.171C333.182 145.206 332.788 146.044 332.122 146.685C331.455 147.326 330.627 147.646 329.638 147.646ZM329.751 146.557C330.38 146.557 330.92 146.33 331.369 145.874C331.818 145.418 332.08 144.835 332.155 144.125L332.762 139.144C332.777 139.051 332.785 138.928 332.785 138.773C332.785 138.14 332.616 137.634 332.279 137.256C331.942 136.878 331.496 136.688 330.942 136.688C330.328 136.688 329.8 136.916 329.358 137.372C328.916 137.827 328.65 138.418 328.56 139.144L327.976 144.125C327.961 144.218 327.953 144.357 327.953 144.542C327.953 145.144 328.114 145.631 328.436 146.001C328.758 146.372 329.197 146.557 329.751 146.557ZM344.92 135.6C345.729 135.6 346.365 135.862 346.83 136.387C347.294 136.912 347.526 137.607 347.526 138.472C347.526 138.596 347.511 138.797 347.481 139.075L346.875 144.171C346.755 145.206 346.38 146.044 345.751 146.685C345.122 147.326 344.365 147.646 343.481 147.646C343.047 147.646 342.65 147.554 342.29 147.368C341.931 147.183 341.639 146.913 341.414 146.557C341.369 146.48 341.331 146.488 341.302 146.581L340.695 151.77C340.665 151.925 340.582 152.002 340.448 152.002H339.729C339.579 152.002 339.519 151.925 339.549 151.77L341.414 136.017C341.444 135.862 341.526 135.785 341.661 135.785H342.38C342.53 135.785 342.59 135.862 342.56 136.017L342.493 136.665C342.493 136.696 342.504 136.715 342.526 136.723C342.549 136.731 342.575 136.719 342.605 136.688C342.905 136.333 343.253 136.063 343.65 135.878C344.047 135.692 344.47 135.6 344.92 135.6ZM346.335 139.121C346.35 139.028 346.358 138.889 346.358 138.704C346.358 138.102 346.189 137.615 345.852 137.244C345.515 136.874 345.069 136.688 344.515 136.688C343.916 136.688 343.403 136.912 342.976 137.36C342.549 137.808 342.29 138.395 342.2 139.121L341.616 144.125C341.601 144.218 341.594 144.364 341.594 144.565C341.594 145.167 341.751 145.65 342.066 146.013C342.38 146.376 342.807 146.557 343.346 146.557C343.961 146.557 344.493 146.33 344.942 145.874C345.391 145.418 345.661 144.835 345.751 144.125L346.335 139.121ZM352.088 147.646C351.204 147.646 350.504 147.38 349.987 146.847C349.47 146.314 349.212 145.608 349.212 144.727C349.212 144.604 349.227 144.418 349.257 144.171L349.863 139.075C349.983 138.055 350.38 137.221 351.054 136.573C351.729 135.924 352.545 135.6 353.504 135.6C354.403 135.6 355.111 135.866 355.627 136.399C356.144 136.932 356.403 137.638 356.403 138.519C356.403 138.642 356.388 138.827 356.358 139.075L355.751 144.171C355.631 145.206 355.238 146.044 354.571 146.685C353.905 147.326 353.077 147.646 352.088 147.646ZM352.201 146.557C352.83 146.557 353.369 146.33 353.819 145.874C354.268 145.418 354.53 144.835 354.605 144.125L355.212 139.144C355.227 139.051 355.234 138.928 355.234 138.773C355.234 138.14 355.066 137.634 354.729 137.256C354.392 136.878 353.946 136.688 353.392 136.688C352.777 136.688 352.249 136.916 351.807 137.372C351.365 137.827 351.099 138.418 351.01 139.144L350.425 144.125C350.41 144.218 350.403 144.357 350.403 144.542C350.403 145.144 350.564 145.631 350.886 146.001C351.208 146.372 351.646 146.557 352.201 146.557ZM362.987 135.623C363.751 135.623 364.339 135.87 364.751 136.364C365.163 136.858 365.369 137.553 365.369 138.449C365.369 138.604 365.354 138.866 365.324 139.237L364.38 147.229C364.35 147.384 364.268 147.461 364.133 147.461H363.414C363.264 147.461 363.204 147.384 363.234 147.229L364.156 139.353C364.186 139.075 364.201 138.874 364.201 138.75C364.201 138.102 364.054 137.6 363.762 137.244C363.47 136.889 363.047 136.712 362.493 136.712C361.864 136.712 361.335 136.959 360.908 137.453C360.481 137.947 360.216 138.627 360.111 139.492L359.189 147.229C359.16 147.384 359.077 147.461 358.942 147.461H358.223C358.073 147.461 358.013 147.384 358.043 147.229L359.369 136.017C359.399 135.862 359.482 135.785 359.616 135.785H360.335C360.47 135.785 360.538 135.862 360.538 136.017L360.425 136.897C360.41 136.943 360.418 136.966 360.448 136.966C360.478 136.966 360.508 136.951 360.538 136.92C361.137 136.055 361.953 135.623 362.987 135.623ZM371.999 136.526C371.969 136.681 371.886 136.758 371.751 136.758H369.999C369.939 136.758 369.908 136.789 369.908 136.851L369.01 144.31C368.98 144.619 368.965 144.82 368.965 144.913C368.965 145.453 369.073 145.832 369.291 146.048C369.508 146.264 369.849 146.372 370.313 146.372H370.538C370.688 146.372 370.748 146.449 370.718 146.604L370.65 147.229C370.62 147.384 370.538 147.461 370.403 147.461H369.976C369.257 147.461 368.714 147.31 368.347 147.009C367.98 146.708 367.796 146.156 367.796 145.353C367.796 145.229 367.811 144.982 367.841 144.612L368.762 136.851C368.777 136.835 368.777 136.816 368.762 136.793C368.747 136.77 368.725 136.758 368.695 136.758H367.796C367.646 136.758 367.586 136.681 367.617 136.526L367.661 136.017C367.691 135.862 367.774 135.785 367.908 135.785H368.807C368.867 135.785 368.897 135.754 368.897 135.692L369.212 133.098C369.242 132.943 369.324 132.866 369.459 132.866H370.156C370.291 132.866 370.358 132.943 370.358 133.098L370.043 135.692C370.043 135.754 370.066 135.785 370.111 135.785H371.864C372.013 135.785 372.073 135.862 372.043 136.017L371.999 136.526ZM375.774 147.646C374.89 147.646 374.19 147.38 373.673 146.847C373.156 146.314 372.897 145.608 372.897 144.727C372.897 144.604 372.912 144.418 372.942 144.171L373.549 139.075C373.669 138.055 374.066 137.221 374.74 136.573C375.414 135.924 376.231 135.6 377.189 135.6C378.088 135.6 378.796 135.866 379.313 136.399C379.83 136.932 380.088 137.638 380.088 138.519C380.088 138.642 380.073 138.827 380.043 139.075L379.437 144.171C379.317 145.206 378.924 146.044 378.257 146.685C377.59 147.326 376.762 147.646 375.774 147.646ZM375.886 146.557C376.515 146.557 377.055 146.33 377.504 145.874C377.953 145.418 378.216 144.835 378.291 144.125L378.897 139.144C378.912 139.051 378.92 138.928 378.92 138.773C378.92 138.14 378.751 137.634 378.414 137.256C378.077 136.878 377.631 136.688 377.077 136.688C376.463 136.688 375.935 136.916 375.493 137.372C375.051 137.827 374.785 138.418 374.695 139.144L374.111 144.125C374.096 144.218 374.088 144.357 374.088 144.542C374.088 145.144 374.249 145.631 374.571 146.001C374.894 146.372 375.332 146.557 375.886 146.557ZM392.965 131.476C392.98 131.414 393.01 131.36 393.055 131.314C393.1 131.267 393.152 131.244 393.212 131.244H393.931C394.006 131.244 394.062 131.267 394.1 131.314C394.137 131.36 394.148 131.414 394.133 131.476L392.246 147.229C392.246 147.291 392.223 147.345 392.178 147.392C392.133 147.438 392.074 147.461 391.999 147.461H391.279C391.22 147.461 391.171 147.438 391.133 147.392C391.096 147.345 391.085 147.291 391.1 147.229L391.167 146.581C391.182 146.55 391.178 146.531 391.156 146.523C391.133 146.515 391.107 146.527 391.077 146.557C390.778 146.913 390.426 147.183 390.021 147.368C389.617 147.554 389.197 147.646 388.762 147.646C387.954 147.646 387.317 147.38 386.852 146.847C386.388 146.314 386.156 145.615 386.156 144.75C386.156 144.503 386.163 144.318 386.178 144.195L386.785 139.075C386.905 138.04 387.279 137.202 387.909 136.561C388.538 135.92 389.302 135.6 390.201 135.6C390.635 135.6 391.029 135.692 391.381 135.878C391.733 136.063 392.021 136.333 392.246 136.688C392.261 136.719 392.283 136.731 392.313 136.723C392.343 136.715 392.358 136.696 392.358 136.665L392.965 131.476ZM389.145 146.557C389.744 146.557 390.261 146.333 390.695 145.886C391.13 145.438 391.384 144.851 391.459 144.125L392.066 139.144C392.081 139.051 392.088 138.905 392.088 138.704C392.088 138.102 391.931 137.615 391.617 137.244C391.302 136.874 390.875 136.688 390.336 136.688C389.707 136.688 389.167 136.916 388.718 137.372C388.268 137.827 387.999 138.418 387.909 139.144L387.324 144.125C387.309 144.218 387.302 144.357 387.302 144.542C387.302 145.144 387.47 145.631 387.807 146.001C388.145 146.372 388.59 146.557 389.145 146.557ZM402.021 141.831C401.991 141.986 401.909 142.063 401.774 142.063H396.763C396.718 142.063 396.68 142.094 396.65 142.156L396.425 144.125C396.41 144.218 396.403 144.357 396.403 144.542C396.403 145.144 396.564 145.631 396.886 146.001C397.208 146.372 397.646 146.557 398.201 146.557C398.71 146.557 399.167 146.395 399.572 146.071C399.976 145.747 400.268 145.322 400.448 144.797C400.523 144.658 400.613 144.588 400.718 144.588L401.392 144.635C401.452 144.635 401.5 144.65 401.538 144.681C401.575 144.712 401.587 144.758 401.571 144.82C401.571 144.866 401.564 144.897 401.549 144.913C401.309 145.762 400.882 146.43 400.268 146.917C399.654 147.403 398.927 147.646 398.088 147.646C397.204 147.646 396.504 147.384 395.987 146.859C395.47 146.333 395.212 145.631 395.212 144.75C395.212 144.627 395.227 144.442 395.257 144.195L395.864 139.075C395.983 138.055 396.381 137.221 397.055 136.573C397.729 135.924 398.545 135.6 399.504 135.6C400.388 135.6 401.088 135.866 401.605 136.399C402.122 136.932 402.38 137.638 402.38 138.519C402.38 138.642 402.366 138.827 402.336 139.075L402.021 141.831ZM399.392 136.688C398.778 136.688 398.249 136.916 397.808 137.372C397.365 137.827 397.1 138.418 397.01 139.144L396.807 140.905C396.807 140.936 396.815 140.959 396.83 140.974C396.845 140.99 396.86 140.997 396.875 140.997H400.875C400.935 140.997 400.965 140.967 400.965 140.905L401.19 139.144C401.205 139.051 401.212 138.92 401.212 138.75C401.212 138.117 401.047 137.615 400.718 137.244C400.388 136.874 399.946 136.688 399.392 136.688ZM413.212 135.6C414.021 135.6 414.658 135.862 415.122 136.387C415.587 136.912 415.819 137.607 415.819 138.472C415.819 138.596 415.804 138.797 415.774 139.075L415.167 144.171C415.047 145.206 414.673 146.044 414.044 146.685C413.414 147.326 412.658 147.646 411.774 147.646C411.34 147.646 410.942 147.554 410.583 147.368C410.223 147.183 409.931 146.913 409.706 146.557C409.662 146.48 409.624 146.488 409.594 146.581L408.987 151.77C408.957 151.925 408.875 152.002 408.74 152.002H408.021C407.871 152.002 407.811 151.925 407.841 151.77L409.706 136.017C409.736 135.862 409.819 135.785 409.954 135.785H410.673C410.823 135.785 410.883 135.862 410.853 136.017L410.785 136.665C410.785 136.696 410.796 136.715 410.819 136.723C410.841 136.731 410.867 136.719 410.897 136.688C411.197 136.333 411.546 136.063 411.943 135.878C412.34 135.692 412.763 135.6 413.212 135.6ZM414.628 139.121C414.643 139.028 414.65 138.889 414.65 138.704C414.65 138.102 414.482 137.615 414.145 137.244C413.808 136.874 413.362 136.688 412.808 136.688C412.208 136.688 411.695 136.912 411.268 137.36C410.841 137.808 410.583 138.395 410.493 139.121L409.909 144.125C409.894 144.218 409.886 144.364 409.886 144.565C409.886 145.167 410.043 145.65 410.358 146.013C410.673 146.376 411.1 146.557 411.639 146.557C412.253 146.557 412.785 146.33 413.235 145.874C413.684 145.418 413.954 144.835 414.044 144.125L414.628 139.121ZM423.796 136.017C423.826 135.862 423.909 135.785 424.044 135.785H424.763C424.898 135.785 424.965 135.862 424.965 136.017L423.617 147.229C423.617 147.291 423.594 147.345 423.549 147.392C423.504 147.438 423.444 147.461 423.37 147.461H422.65C422.591 147.461 422.542 147.438 422.504 147.392C422.467 147.345 422.456 147.291 422.471 147.229L422.583 146.326C422.583 146.28 422.568 146.252 422.538 146.245C422.508 146.237 422.486 146.256 422.471 146.303C422.186 146.735 421.834 147.067 421.414 147.299C420.995 147.531 420.545 147.646 420.066 147.646C419.257 147.646 418.628 147.392 418.179 146.882C417.729 146.372 417.504 145.685 417.504 144.82C417.504 144.696 417.519 144.48 417.549 144.171L418.156 139.075C418.276 138.04 418.639 137.202 419.246 136.561C419.853 135.92 420.605 135.6 421.504 135.6C421.984 135.6 422.403 135.715 422.763 135.947C423.122 136.179 423.399 136.511 423.594 136.943C423.609 136.99 423.628 137.009 423.65 137.001C423.673 136.993 423.692 136.966 423.707 136.92L423.796 136.017ZM420.516 146.557C421.115 146.557 421.632 146.333 422.066 145.886C422.5 145.438 422.755 144.851 422.83 144.125L423.437 139.144C423.452 139.051 423.459 138.905 423.459 138.704C423.459 138.102 423.302 137.615 422.987 137.244C422.673 136.874 422.246 136.688 421.707 136.688C421.077 136.688 420.542 136.916 420.1 137.372C419.658 137.827 419.392 138.418 419.302 139.144L418.718 144.125C418.703 144.218 418.695 144.357 418.695 144.542C418.695 145.144 418.86 145.631 419.19 146.001C419.519 146.372 419.961 146.557 420.516 146.557ZM431.28 135.692C431.639 135.692 431.946 135.769 432.201 135.924C432.291 136.001 432.313 136.102 432.268 136.225L431.999 137.013C431.939 137.152 431.841 137.19 431.707 137.129C431.497 137.036 431.22 136.997 430.875 137.013C430.291 137.028 429.782 137.337 429.347 137.939C428.913 138.542 428.643 139.283 428.538 140.163L427.684 147.229C427.654 147.384 427.572 147.461 427.437 147.461H426.718C426.568 147.461 426.508 147.384 426.538 147.229L427.864 136.017C427.894 135.862 427.976 135.785 428.111 135.785H428.83C428.965 135.785 429.033 135.862 429.033 136.017L428.853 137.453C428.853 137.561 428.89 137.561 428.965 137.453C429.235 136.897 429.564 136.464 429.954 136.156C430.343 135.847 430.785 135.692 431.28 135.692ZM437.572 136.526C437.542 136.681 437.459 136.758 437.325 136.758H435.572C435.512 136.758 435.482 136.789 435.482 136.851L434.583 144.31C434.553 144.619 434.538 144.82 434.538 144.913C434.538 145.453 434.647 145.832 434.864 146.048C435.081 146.264 435.422 146.372 435.886 146.372H436.111C436.261 146.372 436.321 146.449 436.291 146.604L436.223 147.229C436.194 147.384 436.111 147.461 435.976 147.461H435.549C434.83 147.461 434.287 147.31 433.92 147.009C433.553 146.708 433.37 146.156 433.37 145.353C433.37 145.229 433.384 144.982 433.414 144.612L434.336 136.851C434.351 136.835 434.351 136.816 434.336 136.793C434.321 136.77 434.298 136.758 434.269 136.758H433.37C433.22 136.758 433.16 136.681 433.19 136.526L433.235 136.017C433.265 135.862 433.347 135.785 433.482 135.785H434.381C434.441 135.785 434.471 135.754 434.471 135.692L434.785 133.098C434.815 132.943 434.898 132.866 435.033 132.866H435.729C435.864 132.866 435.932 132.943 435.932 133.098L435.617 135.692C435.617 135.754 435.639 135.785 435.684 135.785H437.437C437.587 135.785 437.647 135.862 437.617 136.017L437.572 136.526ZM440.83 133.445C440.546 133.445 440.313 133.352 440.134 133.167C439.954 132.982 439.864 132.735 439.864 132.426C439.864 132.055 439.984 131.746 440.223 131.499C440.463 131.252 440.755 131.128 441.1 131.128C441.385 131.128 441.617 131.217 441.796 131.395C441.976 131.572 442.066 131.808 442.066 132.101C442.066 132.487 441.946 132.808 441.707 133.063C441.467 133.318 441.175 133.445 440.83 133.445ZM438.808 147.461C438.658 147.461 438.598 147.384 438.628 147.229L439.954 136.017C439.984 135.862 440.066 135.785 440.201 135.785H440.92C441.07 135.785 441.13 135.862 441.1 136.017L439.774 147.229C439.744 147.384 439.662 147.461 439.527 147.461H438.808ZM449.774 131.476C449.789 131.414 449.819 131.36 449.864 131.314C449.909 131.267 449.961 131.244 450.021 131.244H450.74C450.815 131.244 450.871 131.267 450.909 131.314C450.946 131.36 450.958 131.414 450.943 131.476L449.055 147.229C449.055 147.291 449.032 147.345 448.987 147.392C448.943 147.438 448.883 147.461 448.808 147.461H448.089C448.029 147.461 447.98 147.438 447.943 147.392C447.905 147.345 447.894 147.291 447.909 147.229L447.976 146.581C447.991 146.55 447.987 146.531 447.965 146.523C447.942 146.515 447.916 146.527 447.886 146.557C447.587 146.913 447.235 147.183 446.83 147.368C446.426 147.554 446.006 147.646 445.572 147.646C444.763 147.646 444.126 147.38 443.662 146.847C443.197 146.314 442.965 145.615 442.965 144.75C442.965 144.503 442.972 144.318 442.987 144.195L443.594 139.075C443.714 138.04 444.089 137.202 444.718 136.561C445.347 135.92 446.111 135.6 447.01 135.6C447.444 135.6 447.838 135.692 448.19 135.878C448.542 136.063 448.83 136.333 449.055 136.688C449.07 136.719 449.093 136.731 449.122 136.723C449.152 136.715 449.167 136.696 449.167 136.665L449.774 131.476ZM445.954 146.557C446.553 146.557 447.07 146.333 447.504 145.886C447.939 145.438 448.194 144.851 448.269 144.125L448.875 139.144C448.89 139.051 448.898 138.905 448.898 138.704C448.898 138.102 448.74 137.615 448.426 137.244C448.111 136.874 447.684 136.688 447.145 136.688C446.516 136.688 445.976 136.916 445.527 137.372C445.077 137.827 444.808 138.418 444.718 139.144L444.133 144.125C444.118 144.218 444.111 144.357 444.111 144.542C444.111 145.144 444.28 145.631 444.617 146.001C444.954 146.372 445.399 146.557 445.954 146.557ZM458.313 136.017C458.343 135.862 458.426 135.785 458.561 135.785H459.28C459.414 135.785 459.482 135.862 459.482 136.017L458.134 147.229C458.134 147.291 458.111 147.345 458.066 147.392C458.021 147.438 457.961 147.461 457.886 147.461H457.167C457.108 147.461 457.059 147.438 457.021 147.392C456.984 147.345 456.973 147.291 456.987 147.229L457.1 146.326C457.1 146.28 457.085 146.252 457.055 146.245C457.025 146.237 457.002 146.256 456.987 146.303C456.703 146.735 456.351 147.067 455.931 147.299C455.512 147.531 455.062 147.646 454.583 147.646C453.774 147.646 453.145 147.392 452.695 146.882C452.246 146.372 452.021 145.685 452.021 144.82C452.021 144.696 452.036 144.48 452.066 144.171L452.673 139.075C452.793 138.04 453.156 137.202 453.763 136.561C454.37 135.92 455.122 135.6 456.021 135.6C456.501 135.6 456.92 135.715 457.28 135.947C457.639 136.179 457.916 136.511 458.111 136.943C458.126 136.99 458.145 137.009 458.167 137.001C458.19 136.993 458.208 136.966 458.223 136.92L458.313 136.017ZM455.033 146.557C455.632 146.557 456.149 146.333 456.583 145.886C457.018 145.438 457.272 144.851 457.347 144.125L457.954 139.144C457.969 139.051 457.976 138.905 457.976 138.704C457.976 138.102 457.819 137.615 457.504 137.244C457.19 136.874 456.763 136.688 456.223 136.688C455.594 136.688 455.059 136.916 454.617 137.372C454.175 137.827 453.909 138.418 453.819 139.144L453.235 144.125C453.22 144.218 453.212 144.357 453.212 144.542C453.212 145.144 453.377 145.631 453.707 146.001C454.036 146.372 454.478 146.557 455.033 146.557ZM461.549 147.368C461.265 147.368 461.032 147.28 460.853 147.102C460.673 146.924 460.583 146.689 460.583 146.395C460.583 146.009 460.703 145.689 460.943 145.434C461.182 145.179 461.482 145.052 461.842 145.052C462.126 145.052 462.354 145.144 462.527 145.33C462.699 145.515 462.785 145.762 462.785 146.071C462.785 146.442 462.665 146.751 462.426 146.998C462.186 147.245 461.894 147.368 461.549 147.368Z" fill="#5D8A9F" stroke="#A9ABAE" stroke-width="0.288" stroke-miterlimit="22.9256"/>
<path fill-rule="evenodd" clip-rule="evenodd" d="M52.6224 98.4612L50.7637 97.3565L82.4317 78.2035L82.331 53.1865C80.822 52.7714 79.761 51.616 79.7054 49.754C79.6777 48.8275 80.0598 47.9163 80.7035 47.2447C81.3532 46.5671 82.2699 46.1334 83.2729 46.1445C83.4955 46.147 83.715 46.1625 83.933 46.2025C84.4534 46.298 84.9535 46.5067 85.374 46.8141C85.7128 47.0617 86.0152 47.3652 86.2497 47.7109C86.6485 48.2988 86.8697 49.0035 86.8731 49.719C86.882 51.5275 85.7825 52.7491 84.2771 53.179L84.3667 77.0333L95.9955 69.9999L95.8987 45.9198C94.3895 45.5045 93.2775 44.1271 93.2695 42.486C93.2644 41.4493 93.6975 40.5189 94.3991 39.8619C95.0352 39.266 95.8934 38.8929 96.834 38.8886C97.473 38.8857 98.0884 39.0567 98.624 39.3547C99.0587 39.5964 99.4314 39.9345 99.7198 40.3191C100.186 40.9402 100.44 41.6961 100.437 42.4509C100.43 44.2598 99.3435 45.4806 97.8381 45.9104L97.9391 71.0899L52.6224 98.4612Z" fill="#FEFEFE" stroke="#FEFEFE" stroke-width="0.288" stroke-miterlimit="22.9256"/>
<defs>
<linearGradient id="paint0_linear_202_678" x1="19.0871" y1="48.9659" x2="68.3729" y2="91.6272" gradientUnits="userSpaceOnUse">
<stop stop-color="#012437"/>
<stop offset="1" stop-color="#1BABCA"/>
</linearGradient>
<linearGradient id="paint1_linear_202_678" x1="112.387" y1="102.387" x2="67.4539" y2="138.678" gradientUnits="userSpaceOnUse">
<stop stop-color="#056687"/>
<stop offset="0.568627" stop-color="#0F81A3"/>
<stop offset="1" stop-color="#199CC0"/>
</linearGradient>
</defs>
</svg>
